<mxfile host="app.diagrams.net" modified="2024-01-16T16:23:35.969Z" agent="Mozilla/5.0 (Macintosh; Intel Mac OS X 10_15_7) AppleWebKit/537.36 (KHTML, like Gecko) Chrome/120.0.0.0 Safari/537.36" version="22.1.19" etag="RiXWS_olhuY2xBDOEegy" type="github">
  <diagram name="Page-1" id="w2RRvnSU4dFt3glei_CG">
    <mxGraphModel>
      <root>
        <mxCell id="0" />
        <mxCell id="1" parent="0" />
      </root>
    </mxGraphModel>
  </diagram>
</mxfile>
